<mxfile host="app.diagrams.net" modified="2022-05-17T08:25:22.376Z" agent="5.0 (Windows NT 10.0; Win64; x64) AppleWebKit/537.36 (KHTML, like Gecko) Chrome/101.0.4951.67 Safari/537.36" etag="OhnTL0KD1sgLR3seXSDo" version="18.0.6" type="github">
  <diagram name="Page-1" id="e7e014a7-5840-1c2e-5031-d8a46d1fe8dd">
    <mxGraphModel dx="1422" dy="762" grid="1" gridSize="10" guides="1" tooltips="1" connect="1" arrows="1" fold="1" page="1" pageScale="1" pageWidth="1169" pageHeight="826" background="none" math="0" shadow="0">
      <root>
        <mxCell id="0" />
        <mxCell id="1" parent="0" />
        <mxCell id="6" value="" style="edgeStyle=elbowEdgeStyle;elbow=horizontal;verticalAlign=bottom;endArrow=open;endSize=8;strokeColor=#FF0000;endFill=1;rounded=0" parent="1" source="5" edge="1">
          <mxGeometry x="125" y="40" as="geometry">
            <mxPoint x="140.4411764705883" y="110" as="targetPoint" />
          </mxGeometry>
        </mxCell>
        <mxCell id="5" value="" style="ellipse;shape=startState;fillColor=#000000;strokeColor=#ff0000;" parent="1" vertex="1">
          <mxGeometry x="125" y="40" width="30" height="30" as="geometry" />
        </mxCell>
        <mxCell id="xFiW1ouzZRO_t7Sl21Z6-87" value="Started system" style="rounded=1;whiteSpace=wrap;html=1;arcSize=40;fontColor=#000000;fillColor=#ffffc0;strokeColor=#ff0000;" parent="1" vertex="1">
          <mxGeometry x="80" y="110" width="120" height="40" as="geometry" />
        </mxCell>
        <mxCell id="xFiW1ouzZRO_t7Sl21Z6-88" value="" style="edgeStyle=orthogonalEdgeStyle;html=1;verticalAlign=bottom;endArrow=open;endSize=8;strokeColor=#ff0000;rounded=0;" parent="1" source="xFiW1ouzZRO_t7Sl21Z6-87" edge="1">
          <mxGeometry relative="1" as="geometry">
            <mxPoint x="140" y="210" as="targetPoint" />
          </mxGeometry>
        </mxCell>
        <mxCell id="xFiW1ouzZRO_t7Sl21Z6-89" value="Check for configuration" style="rounded=1;whiteSpace=wrap;html=1;arcSize=40;fontColor=#000000;fillColor=#ffffc0;strokeColor=#ff0000;" parent="1" vertex="1">
          <mxGeometry x="80" y="210" width="120" height="40" as="geometry" />
        </mxCell>
        <mxCell id="xFiW1ouzZRO_t7Sl21Z6-90" value="" style="edgeStyle=orthogonalEdgeStyle;html=1;verticalAlign=bottom;endArrow=open;endSize=8;strokeColor=#ff0000;rounded=0;" parent="1" source="xFiW1ouzZRO_t7Sl21Z6-89" target="xFiW1ouzZRO_t7Sl21Z6-94" edge="1">
          <mxGeometry relative="1" as="geometry">
            <mxPoint x="150" y="300" as="targetPoint" />
          </mxGeometry>
        </mxCell>
        <mxCell id="xFiW1ouzZRO_t7Sl21Z6-91" value="Read configuration" style="rounded=1;whiteSpace=wrap;html=1;arcSize=40;fontColor=#000000;fillColor=#ffffc0;strokeColor=#ff0000;" parent="1" vertex="1">
          <mxGeometry x="80" y="410" width="120" height="40" as="geometry" />
        </mxCell>
        <mxCell id="xFiW1ouzZRO_t7Sl21Z6-92" value="" style="edgeStyle=orthogonalEdgeStyle;html=1;verticalAlign=bottom;endArrow=open;endSize=8;strokeColor=#ff0000;rounded=0;entryX=0;entryY=0.5;entryDx=0;entryDy=0;" parent="1" source="xFiW1ouzZRO_t7Sl21Z6-91" target="xFiW1ouzZRO_t7Sl21Z6-97" edge="1">
          <mxGeometry relative="1" as="geometry">
            <mxPoint x="140" y="510" as="targetPoint" />
            <Array as="points">
              <mxPoint x="260" y="430" />
              <mxPoint x="260" y="60" />
            </Array>
          </mxGeometry>
        </mxCell>
        <mxCell id="xFiW1ouzZRO_t7Sl21Z6-94" value="Configuration found?" style="rhombus;whiteSpace=wrap;html=1;fillColor=#ffffc0;strokeColor=#ff0000;" parent="1" vertex="1">
          <mxGeometry x="90" y="290" width="100" height="60" as="geometry" />
        </mxCell>
        <mxCell id="xFiW1ouzZRO_t7Sl21Z6-95" value="no" style="edgeStyle=orthogonalEdgeStyle;html=1;align=left;verticalAlign=bottom;endArrow=open;endSize=8;strokeColor=#ff0000;rounded=0;entryX=1;entryY=0.5;entryDx=0;entryDy=0;exitX=1;exitY=0.5;exitDx=0;exitDy=0;" parent="1" source="xFiW1ouzZRO_t7Sl21Z6-94" target="xFiW1ouzZRO_t7Sl21Z6-89" edge="1">
          <mxGeometry x="-1" relative="1" as="geometry">
            <mxPoint x="280" y="330" as="targetPoint" />
            <mxPoint x="220" y="300" as="sourcePoint" />
            <Array as="points">
              <mxPoint x="230" y="320" />
              <mxPoint x="230" y="230" />
            </Array>
          </mxGeometry>
        </mxCell>
        <mxCell id="xFiW1ouzZRO_t7Sl21Z6-96" value="yes" style="edgeStyle=orthogonalEdgeStyle;html=1;align=left;verticalAlign=top;endArrow=open;endSize=8;strokeColor=#ff0000;rounded=0;" parent="1" source="xFiW1ouzZRO_t7Sl21Z6-94" edge="1">
          <mxGeometry x="-1" relative="1" as="geometry">
            <mxPoint x="140" y="410" as="targetPoint" />
          </mxGeometry>
        </mxCell>
        <mxCell id="xFiW1ouzZRO_t7Sl21Z6-97" value="Get image from sensors (SD card)" style="rounded=1;whiteSpace=wrap;html=1;arcSize=40;fontColor=#000000;fillColor=#ffffc0;strokeColor=#ff0000;" parent="1" vertex="1">
          <mxGeometry x="300" y="40" width="120" height="40" as="geometry" />
        </mxCell>
        <mxCell id="xFiW1ouzZRO_t7Sl21Z6-98" value="" style="edgeStyle=orthogonalEdgeStyle;html=1;verticalAlign=bottom;endArrow=open;endSize=8;strokeColor=#ff0000;rounded=0;entryX=0.5;entryY=0;entryDx=0;entryDy=0;" parent="1" source="xFiW1ouzZRO_t7Sl21Z6-97" target="xFiW1ouzZRO_t7Sl21Z6-104" edge="1">
          <mxGeometry relative="1" as="geometry">
            <mxPoint x="360" y="140" as="targetPoint" />
          </mxGeometry>
        </mxCell>
        <mxCell id="xFiW1ouzZRO_t7Sl21Z6-99" value="Run i th layer from configuration" style="rounded=1;whiteSpace=wrap;html=1;arcSize=40;fontColor=#000000;fillColor=#ffffc0;strokeColor=#ff0000;" parent="1" vertex="1">
          <mxGeometry x="300" y="193" width="120" height="40" as="geometry" />
        </mxCell>
        <mxCell id="xFiW1ouzZRO_t7Sl21Z6-100" value="" style="edgeStyle=orthogonalEdgeStyle;html=1;verticalAlign=bottom;endArrow=open;endSize=8;strokeColor=#ff0000;rounded=0;entryX=0.5;entryY=0;entryDx=0;entryDy=0;" parent="1" source="xFiW1ouzZRO_t7Sl21Z6-99" target="xFiW1ouzZRO_t7Sl21Z6-108" edge="1">
          <mxGeometry relative="1" as="geometry">
            <mxPoint x="360" y="293" as="targetPoint" />
          </mxGeometry>
        </mxCell>
        <mxCell id="xFiW1ouzZRO_t7Sl21Z6-102" value="no" style="edgeStyle=orthogonalEdgeStyle;html=1;align=left;verticalAlign=bottom;endArrow=open;endSize=8;strokeColor=#ff0000;rounded=0;entryX=1;entryY=0.5;entryDx=0;entryDy=0;exitX=1;exitY=0.5;exitDx=0;exitDy=0;" parent="1" source="xFiW1ouzZRO_t7Sl21Z6-108" target="xFiW1ouzZRO_t7Sl21Z6-104" edge="1">
          <mxGeometry x="-1" relative="1" as="geometry">
            <mxPoint x="500" y="340" as="targetPoint" />
            <mxPoint x="400" y="340.0000000000001" as="sourcePoint" />
            <Array as="points">
              <mxPoint x="450" y="300" />
              <mxPoint x="450" y="135" />
            </Array>
          </mxGeometry>
        </mxCell>
        <mxCell id="xFiW1ouzZRO_t7Sl21Z6-103" value="yes" style="edgeStyle=orthogonalEdgeStyle;html=1;align=left;verticalAlign=top;endArrow=open;endSize=8;strokeColor=#ff0000;rounded=0;exitX=0.5;exitY=1;exitDx=0;exitDy=0;entryX=0.5;entryY=0;entryDx=0;entryDy=0;" parent="1" source="xFiW1ouzZRO_t7Sl21Z6-108" target="xFiW1ouzZRO_t7Sl21Z6-110" edge="1">
          <mxGeometry x="-1" y="14" relative="1" as="geometry">
            <mxPoint x="360" y="373" as="targetPoint" />
            <mxPoint x="310" y="353" as="sourcePoint" />
            <mxPoint x="-4" y="-10" as="offset" />
          </mxGeometry>
        </mxCell>
        <mxCell id="xFiW1ouzZRO_t7Sl21Z6-104" value="Transfer input, bias, weight, act function, and size for i th layer" style="rounded=1;whiteSpace=wrap;html=1;arcSize=40;fontColor=#000000;fillColor=#ffffc0;strokeColor=#ff0000;" parent="1" vertex="1">
          <mxGeometry x="300" y="110" width="120" height="50" as="geometry" />
        </mxCell>
        <mxCell id="xFiW1ouzZRO_t7Sl21Z6-105" value="" style="edgeStyle=orthogonalEdgeStyle;html=1;verticalAlign=bottom;endArrow=open;endSize=8;strokeColor=#ff0000;rounded=0;entryX=0.5;entryY=0;entryDx=0;entryDy=0;" parent="1" source="xFiW1ouzZRO_t7Sl21Z6-104" target="xFiW1ouzZRO_t7Sl21Z6-99" edge="1">
          <mxGeometry relative="1" as="geometry">
            <mxPoint x="360" y="220" as="targetPoint" />
          </mxGeometry>
        </mxCell>
        <mxCell id="xFiW1ouzZRO_t7Sl21Z6-108" value="All layers run?" style="rhombus;whiteSpace=wrap;html=1;fillColor=#ffffc0;strokeColor=#ff0000;" parent="1" vertex="1">
          <mxGeometry x="310" y="270" width="100" height="60" as="geometry" />
        </mxCell>
        <mxCell id="xFiW1ouzZRO_t7Sl21Z6-110" value="Use result" style="rounded=1;whiteSpace=wrap;html=1;arcSize=40;fontColor=#000000;fillColor=#ffffc0;strokeColor=#ff0000;" parent="1" vertex="1">
          <mxGeometry x="300" y="370" width="120" height="40" as="geometry" />
        </mxCell>
        <mxCell id="xFiW1ouzZRO_t7Sl21Z6-118" value="New &lt;br&gt;configuration?" style="rhombus;whiteSpace=wrap;html=1;fillColor=#ffffc0;strokeColor=#ff0000;" parent="1" vertex="1">
          <mxGeometry x="310" y="440" width="100" height="60" as="geometry" />
        </mxCell>
        <mxCell id="xFiW1ouzZRO_t7Sl21Z6-119" value="no" style="edgeStyle=orthogonalEdgeStyle;html=1;align=left;verticalAlign=bottom;endArrow=open;endSize=8;strokeColor=#ff0000;rounded=0;exitX=1;exitY=0.5;exitDx=0;exitDy=0;entryX=0;entryY=0.5;entryDx=0;entryDy=0;" parent="1" source="xFiW1ouzZRO_t7Sl21Z6-118" target="xFiW1ouzZRO_t7Sl21Z6-122" edge="1">
          <mxGeometry x="-1" relative="1" as="geometry">
            <mxPoint x="440" y="450" as="targetPoint" />
            <mxPoint x="440" y="440" as="sourcePoint" />
            <Array as="points" />
          </mxGeometry>
        </mxCell>
        <mxCell id="xFiW1ouzZRO_t7Sl21Z6-120" value="yes" style="edgeStyle=orthogonalEdgeStyle;html=1;align=left;verticalAlign=top;endArrow=open;endSize=8;strokeColor=#ff0000;rounded=0;entryX=0;entryY=0.5;entryDx=0;entryDy=0;" parent="1" source="xFiW1ouzZRO_t7Sl21Z6-118" target="xFiW1ouzZRO_t7Sl21Z6-89" edge="1">
          <mxGeometry x="-0.9636" y="10" relative="1" as="geometry">
            <mxPoint x="380" y="550.0000000000001" as="targetPoint" />
            <Array as="points">
              <mxPoint x="50" y="470" />
              <mxPoint x="50" y="230" />
            </Array>
            <mxPoint as="offset" />
          </mxGeometry>
        </mxCell>
        <mxCell id="xFiW1ouzZRO_t7Sl21Z6-121" value="" style="edgeStyle=orthogonalEdgeStyle;html=1;align=left;verticalAlign=top;endArrow=open;endSize=8;strokeColor=#ff0000;rounded=0;exitX=0.5;exitY=1;exitDx=0;exitDy=0;entryX=0.5;entryY=0;entryDx=0;entryDy=0;" parent="1" source="xFiW1ouzZRO_t7Sl21Z6-110" target="xFiW1ouzZRO_t7Sl21Z6-118" edge="1">
          <mxGeometry x="-1" y="14" relative="1" as="geometry">
            <mxPoint x="370" y="380" as="targetPoint" />
            <mxPoint x="370" y="340" as="sourcePoint" />
            <mxPoint x="-4" y="-10" as="offset" />
          </mxGeometry>
        </mxCell>
        <mxCell id="xFiW1ouzZRO_t7Sl21Z6-122" value="Done classifying" style="rhombus;whiteSpace=wrap;html=1;fillColor=#ffffc0;strokeColor=#ff0000;" parent="1" vertex="1">
          <mxGeometry x="440" y="440" width="100" height="60" as="geometry" />
        </mxCell>
        <mxCell id="xFiW1ouzZRO_t7Sl21Z6-123" value="no" style="edgeStyle=orthogonalEdgeStyle;html=1;align=left;verticalAlign=bottom;endArrow=open;endSize=8;strokeColor=#ff0000;rounded=0;exitX=0.5;exitY=0;exitDx=0;exitDy=0;entryX=1;entryY=0.5;entryDx=0;entryDy=0;" parent="1" source="xFiW1ouzZRO_t7Sl21Z6-122" target="xFiW1ouzZRO_t7Sl21Z6-97" edge="1">
          <mxGeometry x="-1" relative="1" as="geometry">
            <mxPoint x="470" y="480" as="targetPoint" />
            <mxPoint x="420" y="480" as="sourcePoint" />
            <Array as="points" />
          </mxGeometry>
        </mxCell>
        <mxCell id="xFiW1ouzZRO_t7Sl21Z6-124" value="" style="ellipse;html=1;shape=endState;fillColor=#000000;strokeColor=#ff0000;" parent="1" vertex="1">
          <mxGeometry x="569.5" y="455" width="30" height="30" as="geometry" />
        </mxCell>
        <mxCell id="xFiW1ouzZRO_t7Sl21Z6-126" value="yes" style="edgeStyle=orthogonalEdgeStyle;html=1;align=left;verticalAlign=top;endArrow=open;endSize=8;strokeColor=#ff0000;rounded=0;entryX=0;entryY=0.5;entryDx=0;entryDy=0;exitX=1;exitY=0.5;exitDx=0;exitDy=0;" parent="1" source="xFiW1ouzZRO_t7Sl21Z6-122" target="xFiW1ouzZRO_t7Sl21Z6-124" edge="1">
          <mxGeometry x="-1" relative="1" as="geometry">
            <mxPoint x="90" y="240" as="targetPoint" />
            <mxPoint x="320" y="480" as="sourcePoint" />
            <Array as="points">
              <mxPoint x="550" y="470" />
              <mxPoint x="550" y="470" />
            </Array>
            <mxPoint as="offset" />
          </mxGeometry>
        </mxCell>
        <mxCell id="xFiW1ouzZRO_t7Sl21Z6-127" value="Activity diagram - Zynq processor" style="shape=umlFrame;whiteSpace=wrap;html=1;width=200;height=20;" parent="1" vertex="1">
          <mxGeometry x="20" y="11" width="600" height="510" as="geometry" />
        </mxCell>
      </root>
    </mxGraphModel>
  </diagram>
</mxfile>
